# xmcd
#
# Track frame offsets:
#	150
#	13013
#	24361
#	38702
#	55189
#
# Disc length: 891 seconds
#
# Revision: 1
# Processed by: cddbd v1.5.2PL0 Copyright (c) Steve Scherf et al.
# Submitted via: audiograbber 1.83.01
#
DISCID=31037905
DTITLE=J. Gale Kilgore - Both Sides Of The Border
DYEAR=2000
DGENRE=
TTITLE0=Both Sides Of The Border
TTITLE1=All I Can Do Is Love You
TTITLE2=I´m Gonna Keep On Trying
TTITLE3=On Your Mind
TTITLE4=When Was The Last Time
EXTD=
EXTT0=
EXTT1=
EXTT2=
EXTT3=
EXTT4=
PLAYORDER=
